# 3ds Max Wavefront OBJ Exporter v0.99 - (c)2007 guruware
# File Created: 07.10.2025 23:43:06

mtllib arrow.mtl

#
# object arrow
#

v  -0.4740 -1.1488 19.3560
v  -0.4740 -0.0000 19.3560
v  -0.4740 -0.0000 16.5132
v  -0.4740 -1.0194 16.5132
v  0.4741 0.0000 16.5132
v  0.4741 0.0000 19.3560
v  0.4741 -1.1488 19.3560
v  0.4741 -1.0194 16.5132
v  -0.4576 -0.0000 -22.1915
v  0.4576 0.0000 -22.1915
v  0.4576 -0.9104 -22.1915
v  -0.4576 -0.9104 -22.1915
v  -0.4740 1.1488 19.3560
v  0.4741 1.1488 19.3560
v  0.4741 1.0194 16.5132
v  -0.4740 1.0194 16.5132
v  -0.4113 -1.0928 32.8480
v  0.4114 -1.0928 32.8480
v  0.3427 -0.7343 35.4122
v  -0.3427 -0.7343 35.4122
v  -0.4113 1.0928 32.8480
v  -0.4113 -0.0000 32.8480
v  -0.3427 -0.0000 35.4122
v  -0.3427 0.7343 35.4122
v  -0.4576 0.9104 -22.1915
v  0.4576 0.9104 -22.1915
v  -0.4172 -0.0000 30.2838
v  -0.4172 -1.5525 30.2838
v  0.4114 0.0000 32.8480
v  0.4173 -1.5525 30.2838
v  0.4173 0.0000 30.2838
v  0.4114 1.0928 32.8480
v  0.4173 1.5524 30.2838
v  -0.4172 1.5524 30.2838
v  -0.4740 -2.9514 23.3369
v  0.4741 -2.9514 23.3369
v  0.4741 -6.4741 25.1553
v  -0.4740 -6.4741 25.1553
v  -0.4740 2.9514 23.3369
v  -0.4740 -0.0000 23.3369
v  -0.4740 -0.0000 25.1553
v  -0.4740 6.4740 25.1553
v  -0.4740 -1.8308 21.5185
v  -0.4740 -0.0000 21.5185
v  0.4741 0.0000 21.5185
v  0.4741 -1.8308 21.5185
v  -0.4740 1.8308 21.5185
v  0.4741 1.8308 21.5185
v  0.4741 0.0000 23.3369
v  0.4741 2.9514 23.3369
v  0.4741 0.0000 25.1553
v  0.4741 6.4740 25.1553
v  -0.4740 -4.5438 26.4374
v  0.4741 -4.5438 26.4374
v  0.4383 -2.6136 27.7196
v  -0.4382 -2.6136 27.7196
v  0.2400 -0.4803 37.9765
v  0.0000 0.0000 40.5407
v  -0.2399 -0.4803 37.9765
v  -0.4382 2.6136 27.7196
v  -0.4740 4.5438 26.4374
v  -0.4740 -0.0000 26.4374
v  -0.4382 -0.0000 27.7196
v  -0.2399 -0.0000 37.9765
v  -0.2399 0.4802 37.9765
v  0.2400 0.0000 37.9765
v  0.3427 0.0000 35.4122
v  0.4741 0.0000 26.4374
v  0.4383 0.0000 27.7196
v  0.2400 0.4802 37.9765
v  0.3427 0.7343 35.4122
v  0.4741 4.5438 26.4374
v  0.4383 2.6136 27.7196
v  -0.3415 0.5734 16.5132
v  -0.3415 -0.0000 16.5132
v  0.3415 0.5734 16.5132
v  0.3415 0.0000 16.5132
v  0.3415 -0.5734 16.5132
v  -0.3415 -0.5734 16.5132
v  -0.3415 0.5734 -20.2923
v  -0.3415 -0.0000 -20.2923
v  0.3415 0.5734 -20.2923
v  0.3415 0.0000 -20.2923
v  0.3415 -0.5734 -20.2923
v  -0.3415 -0.5734 -20.2923
v  -0.4576 0.9104 -20.2923
v  -0.4576 -0.0000 -20.2923
v  0.4576 0.9104 -20.2923
v  0.4576 0.0000 -20.2923
v  0.4576 -0.9104 -20.2923
v  -0.4576 -0.9104 -20.2923
v  -0.2856 -3.4375 -34.4055
v  -0.2856 -3.6808 -31.4033
v  -0.2856 -1.1625 -31.4064
v  0.2281 -3.4375 -34.4055
v  0.2281 -1.1625 -31.4064
v  0.2281 -3.6808 -31.4033
v  -0.2856 3.7098 -31.4033
v  0.2281 3.7178 -31.4264
v  0.2281 3.4721 -34.4576
v  -0.2856 3.4665 -34.4055
v  0.2281 3.5901 -29.6790
v  0.2281 2.5019 -27.0162
v  0.2280 0.0145 -27.0299
v  0.2281 0.3752 -29.6659
v  0.2281 0.0145 -28.8487
v  -0.2856 0.3792 -29.6743
v  -0.2856 0.0145 -28.8487
v  -0.2856 -3.5544 -29.6726
v  0.2281 -3.5544 -29.6726
v  0.2281 -2.4766 -27.0354
v  -0.2856 -2.4766 -27.0354
v  -0.2856 3.5833 -29.6726
v  -0.2856 0.0145 -27.0299
v  -0.2856 2.5056 -27.0354
v  -0.2856 -0.3502 -29.6743
v  0.2281 -0.3502 -29.6743
v  0.2281 1.1954 -31.4148
v  -0.2856 1.1915 -31.4064
v  -0.2856 0.0141 -22.0576
v  0.2281 0.0140 -22.0576
v  -0.1665 -3.4375 -40.4886
v  -0.1665 -3.6808 -37.4864
v  -0.1665 -1.1625 -37.4895
v  0.1090 -3.4375 -40.4886
v  0.1090 -1.1625 -37.4895
v  0.1090 -3.6808 -37.4864
v  -0.1665 3.7098 -37.4864
v  0.1090 3.7178 -37.5094
v  0.1090 3.4721 -40.5407
v  -0.1665 3.4665 -40.4886
v  0.1090 3.5901 -35.7620
v  0.1090 2.5019 -33.0993
v  0.1090 0.0145 -33.1129
v  0.1090 0.3752 -35.7490
v  0.1090 0.0145 -34.9318
v  -0.1665 0.3792 -35.7574
v  -0.1665 0.0145 -34.9318
v  -0.1665 -3.5544 -35.7557
v  0.1090 -3.5544 -35.7557
v  0.1090 -2.4766 -33.1184
v  -0.1665 -2.4766 -33.1184
v  -0.1665 3.5833 -35.7557
v  -0.1665 0.0145 -33.1129
v  -0.1665 2.5056 -33.1184
v  -0.1665 -0.3502 -35.7574
v  0.1090 -0.3502 -35.7574
v  0.1090 1.1954 -37.4978
v  -0.1665 1.1915 -37.4895
v  -0.1665 0.0141 -28.1407
v  0.1090 0.0140 -28.1407
# 151 vertices

vn -1.0000 -0.0000 -0.0000
vn 1.0000 0.0000 -0.0000
vn 0.0000 0.0000 -1.0000
vn -0.0000 0.9846 -0.1746
vn -0.0000 0.9990 -0.0455
vn 0.0000 -0.9875 0.1577
vn 0.0000 -0.9929 0.1190
vn -0.9999 -0.0000 0.0133
vn -0.9999 -0.0000 0.0145
vn -0.9994 -0.0000 0.0334
vn -0.9995 -0.0000 0.0329
vn -1.0000 -0.0000 0.0053
vn -1.0000 -0.0000 0.0058
vn 0.9999 0.0000 0.0145
vn 0.9999 0.0000 0.0133
vn 1.0000 0.0000 0.0057
vn 1.0000 0.0000 0.0052
vn -0.0000 0.9875 0.1577
vn -0.0000 0.9596 0.2813
vn 0.0000 -0.6798 -0.7334
vn 0.0000 -0.4587 -0.8886
vn -0.0000 0.9094 -0.4159
vn 0.0000 -0.9990 -0.0455
vn 0.0000 -0.9846 -0.1746
vn 0.0000 -0.9094 -0.4159
vn -0.0000 0.6798 -0.7334
vn -0.0000 0.4587 -0.8886
vn 0.0000 -0.5533 0.8330
vn 0.0000 -0.7708 0.6370
vn 0.0000 -0.9596 0.2813
vn 0.0000 -0.9902 0.1396
vn 0.0000 -0.9829 0.1841
vn -0.9998 -0.0000 0.0217
vn -1.0000 -0.0000 0.0052
vn -0.9999 -0.0000 0.0140
vn -0.9998 -0.0000 0.0181
vn -0.9978 -0.0000 0.0666
vn -0.9957 -0.0000 0.0932
vn -0.9979 -0.0000 0.0642
vn 0.9978 0.0000 0.0666
vn 0.9957 0.0000 0.0932
vn 0.9979 0.0000 0.0642
vn 0.9995 0.0000 0.0329
vn 0.9994 0.0000 0.0334
vn 0.9998 0.0000 0.0217
vn 0.9999 0.0000 0.0140
vn 0.9998 0.0000 0.0181
vn -0.0000 0.9902 0.1396
vn -0.0000 0.9829 0.1841
vn -0.0000 0.9929 0.1190
vn -0.0000 0.5533 0.8330
vn -0.0000 0.7708 0.6370
vn -0.0000 1.0000 -0.0000
vn 0.0000 -1.0000 -0.0000
vn 0.0000 0.0000 1.0000
vn -0.0000 0.8558 -0.5173
vn -0.0000 0.7967 -0.6044
vn -0.0156 0.9999 -0.0018
vn -0.0158 0.9999 -0.0062
vn -0.0191 0.9966 -0.0808
vn -0.0001 -0.9101 -0.4144
vn -0.0002 -0.9102 -0.4141
vn -0.0001 -0.9148 -0.4040
vn 0.0000 -0.9147 -0.4040
vn 0.0000 -0.9736 0.2284
vn 0.0000 -0.9107 0.4132
vn -0.0000 0.9101 -0.4143
vn -0.0100 0.9732 0.2299
vn -0.0100 0.9739 0.2269
vn -0.0480 -0.7994 -0.5988
vn -0.0520 -0.7996 -0.5983
vn -0.0040 -0.8553 -0.5181
vn -0.0019 -0.8564 -0.5163
vn 0.0000 -0.9967 -0.0808
vn 0.0000 -1.0000 -0.0040
vn -0.0000 0.9147 -0.4040
vn -0.0089 0.9110 0.4124
vn -0.0086 0.9102 0.4141
vn -0.0001 -0.8943 0.4475
vn -0.0002 -0.8943 0.4475
vn -0.0005 0.8938 0.4484
vn 0.0002 0.8938 0.4485
vn -0.0290 0.9996 0.0001
vn -0.0296 0.9995 -0.0080
vn -0.0356 0.9961 -0.0807
vn -0.0003 -0.9101 -0.4145
vn -0.0004 -0.9103 -0.4140
vn -0.0185 0.9728 0.2311
vn -0.0187 0.9740 0.2257
vn -0.0928 -0.7971 -0.5967
vn -0.0965 -0.7969 -0.5963
vn -0.0057 -0.8547 -0.5191
vn -0.0034 -0.8569 -0.5154
vn -0.0165 0.9112 0.4117
vn -0.0164 0.9098 0.4147
vn -0.0003 -0.8943 0.4475
vn -0.0003 0.8938 0.4484
vn 0.0003 0.8938 0.4485
# 98 vertex normals

vt 0.6027 0.3818 0.0000
vt 0.6173 0.3818 0.0000
vt 0.6173 0.3456 0.0000
vt 0.6043 0.3456 0.0000
vt 0.6708 0.7869 5.6085
vt 0.6708 0.9640 -5.6085
vt 0.6584 0.9507 -5.6085
vt 0.6584 0.8007 -5.6085
vt 0.3509 0.7367 0.0000
vt 0.3508 0.6935 0.0000
vt 0.3741 0.6935 0.0000
vt 0.3741 0.7367 0.0000
vt 0.5643 0.7335 0.0000
vt 0.5643 0.6960 0.0000
vt 0.5854 0.6991 0.0000
vt 0.5855 0.7303 0.0000
vt 0.6313 0.5542 0.0000
vt 0.6173 0.5542 0.0000
vt 0.6173 0.5873 0.0000
vt 0.6267 0.5873 0.0000
vt 0.6303 0.3456 0.0000
vt 0.6320 0.3818 0.0000
vt 0.5302 0.8007 -5.6085
vt 0.5302 0.9507 -5.6085
vt 0.5178 0.9640 -5.6085
vt 0.5178 0.7869 5.6085
vt 0.6034 0.5542 0.0000
vt 0.6173 0.5215 0.0000
vt 0.5975 0.5215 0.0000
vt 0.2006 0.7341 0.0000
vt 0.2005 0.6966 0.0000
vt 0.2218 0.6963 0.0000
vt 0.2219 0.7343 0.0000
vt 0.4501 0.7367 0.0000
vt 0.4500 0.6933 0.0000
vt 0.4824 0.6933 0.0000
vt 0.4825 0.7367 0.0000
vt 0.6550 0.4326 0.0000
vt 0.6173 0.4326 0.0000
vt 0.6173 0.4557 0.0000
vt 0.6999 0.4557 0.0000
vt 0.6371 0.5215 0.0000
vt 0.5940 0.4094 0.0000
vt 0.6173 0.4094 0.0000
vt 0.3323 0.7367 0.0000
vt 0.3323 0.6935 0.0000
vt 0.6407 0.4094 0.0000
vt 0.3908 0.7367 0.0000
vt 0.3908 0.6933 0.0000
vt 0.4140 0.6933 0.0000
vt 0.4141 0.7367 0.0000
vt 0.4325 0.6933 0.0000
vt 0.4326 0.7367 0.0000
vt 0.5797 0.4326 0.0000
vt 0.3149 0.7367 0.0000
vt 0.3148 0.6935 0.0000
vt 0.5347 0.4557 0.0000
vt 0.2825 0.7367 0.0000
vt 0.2824 0.6935 0.0000
vt 0.5014 0.7365 0.0000
vt 0.5013 0.6932 0.0000
vt 0.5203 0.6948 0.0000
vt 0.5204 0.7348 0.0000
vt 0.5430 0.6957 0.0000
vt 0.5430 0.7338 0.0000
vt 0.6065 0.7037 0.0000
vt 0.6279 0.7146 0.0000
vt 0.6065 0.7256 0.0000
vt 0.6507 0.4887 0.0000
vt 0.6753 0.4721 0.0000
vt 0.6173 0.4721 0.0000
vt 0.6173 0.4887 0.0000
vt 0.6173 0.6208 0.0000
vt 0.6173 0.6577 0.0000
vt 0.6234 0.6208 0.0000
vt 0.6112 0.6208 0.0000
vt 0.6079 0.5873 0.0000
vt 0.5593 0.4721 0.0000
vt 0.5840 0.4887 0.0000
vt 0.1583 0.7264 0.0000
vt 0.1370 0.7154 0.0000
vt 0.1583 0.7045 0.0000
vt 0.1793 0.6997 0.0000
vt 0.1794 0.7310 0.0000
vt 0.2634 0.6935 0.0000
vt 0.2635 0.7367 0.0000
vt 0.2446 0.7353 0.0000
vt 0.2445 0.6953 0.0000
vt 0.3824 0.7367 0.0000
vt 0.3777 0.7306 0.0000
vt 0.3824 0.7306 0.0000
vt 0.3777 0.6995 0.0000
vt 0.3824 0.6934 0.0000
vt 0.3824 0.6995 0.0000
vt 0.3871 0.6994 0.0000
vt 0.3871 0.7306 0.0000
vt 0.9575 0.9586 0.0000
vt 0.9431 0.9586 0.0000
vt 0.9431 0.0347 0.0000
vt 0.9575 0.0347 0.0000
vt 0.8474 0.9586 0.0000
vt 0.8474 0.0347 0.0000
vt 0.8330 0.9586 0.0000
vt 0.8330 0.0347 0.0000
vt 0.8186 0.9586 0.0000
vt 0.8186 0.0347 0.0000
vt 0.7229 0.9586 0.0000
vt 0.7229 0.0347 0.0000
vt 0.9719 0.9586 0.0000
vt 0.9719 0.0347 0.0000
vt 0.5939 0.8056 -5.6085
vt 0.5874 0.8145 -5.6085
vt 0.5792 0.8007 -5.6085
vt 0.5939 0.7869 -5.6085
vt 0.5874 0.9365 -5.6085
vt 0.5792 0.9507 -5.6085
vt 0.5941 0.9448 -5.6085
vt 0.5941 0.9640 -5.6085
vt 0.6013 0.9359 -5.6085
vt 0.6094 0.9507 -5.6085
vt 0.6013 0.8139 -5.6085
vt 0.6094 0.8007 -5.6085
vt 0.2878 0.7697 0.0000
vt 0.2918 0.8223 0.0000
vt 0.2479 0.8223 0.0000
vt 0.1674 0.7695 0.0000
vt 0.2068 0.8219 0.0000
vt 0.1629 0.8219 0.0000
vt 0.3803 0.6600 0.0000
vt 0.3803 0.6313 0.0000
vt 0.4148 0.6313 0.0000
vt 0.4148 0.6600 0.0000
vt 0.2535 0.6600 0.0000
vt 0.2535 0.6313 0.0000
vt 0.2844 0.6313 0.0000
vt 0.2844 0.6600 0.0000
vt 0.2894 0.8526 0.0000
vt 0.2703 0.8985 0.0000
vt 0.2267 0.8985 0.0000
vt 0.2335 0.8526 0.0000
vt 0.2267 0.8667 0.0000
vt 0.3279 0.6600 0.0000
vt 0.3279 0.6313 0.0000
vt 0.3371 0.6313 0.0000
vt 0.3371 0.6600 0.0000
vt 0.4624 0.6600 0.0000
vt 0.4624 0.6313 0.0000
vt 0.5053 0.6313 0.0000
vt 0.5053 0.6600 0.0000
vt 0.1649 0.8522 0.0000
vt 0.2208 0.8522 0.0000
vt 0.1834 0.8985 0.0000
vt 0.3514 0.6600 0.0000
vt 0.3514 0.6313 0.0000
vt 0.2293 0.6600 0.0000
vt 0.2293 0.6313 0.0000
vt 0.3135 0.6313 0.0000
vt 0.3135 0.6600 0.0000
vt 0.4390 0.6313 0.0000
vt 0.4390 0.6600 0.0000
vt 0.2058 0.6600 0.0000
vt 0.2058 0.6313 0.0000
vt 0.2267 0.9852 0.0000
vt 0.5620 0.6313 0.0000
vt 0.5620 0.6600 0.0000
vt 0.1584 0.6600 0.0000
vt 0.1584 0.6313 0.0000
vt 0.4665 0.7686 0.0000
vt 0.4705 0.8211 0.0000
vt 0.4265 0.8211 0.0000
vt 0.3460 0.7684 0.0000
vt 0.3854 0.8208 0.0000
vt 0.3415 0.8208 0.0000
vt 0.4681 0.8514 0.0000
vt 0.4489 0.8973 0.0000
vt 0.4054 0.8973 0.0000
vt 0.4121 0.8514 0.0000
vt 0.4054 0.8656 0.0000
vt 0.3435 0.8510 0.0000
vt 0.3994 0.8510 0.0000
vt 0.3621 0.8973 0.0000
vt 0.4054 0.9840 0.0000
# 182 texture coords

o arrow
g arrow
usemtl 01___Default
s 1
f -151/-182/-98 -150/-181/-98 -149/-180/-98 
f -149/-180/-98 -148/-179/-98 -151/-182/-98 
s 2
f -147/-180/-97 -146/-181/-97 -145/-182/-97 
f -145/-182/-97 -144/-179/-97 -147/-180/-97 
s 1
f -143/-178/-96 -142/-177/-96 -141/-176/-96 
f -141/-176/-96 -140/-175/-96 -143/-178/-96 
s 4
f -139/-174/-95 -138/-173/-95 -137/-172/-94 
f -137/-172/-94 -136/-171/-94 -139/-174/-95 
f -135/-170/-93 -134/-169/-93 -133/-168/-92 
f -133/-168/-92 -132/-167/-92 -135/-170/-93 
s 1
f -131/-166/-91 -130/-165/-90 -129/-164/-89 
f -129/-164/-89 -128/-163/-88 -131/-166/-91 
s 2
f -137/-162/-97 -138/-161/-97 -146/-181/-97 
f -146/-181/-97 -147/-180/-97 -137/-162/-97 
s 1
f -127/-160/-96 -126/-159/-96 -142/-158/-96 
f -142/-158/-96 -143/-157/-96 -127/-160/-96 
f -135/-156/-91 -130/-165/-90 -125/-155/-87 
f -125/-155/-87 -124/-154/-86 -135/-156/-91 
s 2
f -123/-165/-85 -134/-156/-84 -122/-154/-83 
f -122/-154/-83 -121/-155/-82 -123/-165/-85 
s 8
f -131/-153/-81 -120/-152/-81 -119/-151/-80 
f -119/-151/-80 -118/-150/-80 -131/-153/-81 
f -117/-149/-79 -116/-148/-79 -115/-147/-78 
f -115/-147/-78 -114/-146/-78 -117/-149/-79 
s 1
f -113/-145/-98 -112/-144/-98 -111/-143/-98 
f -111/-143/-98 -110/-142/-98 -113/-145/-98 
s 2
f -120/-166/-84 -123/-165/-85 -121/-155/-82 
f -121/-155/-82 -119/-141/-83 -120/-166/-84 
s 1
f -151/-182/-98 -109/-140/-98 -108/-139/-98 
f -108/-139/-98 -150/-181/-98 -151/-182/-98 
s 2
f -107/-139/-97 -106/-140/-97 -145/-182/-97 
f -145/-182/-97 -146/-181/-97 -107/-139/-97 
s 4
f -105/-138/-77 -104/-137/-77 -138/-173/-95 
f -138/-173/-95 -139/-174/-95 -105/-138/-77 
s 2
f -138/-161/-97 -104/-136/-97 -107/-139/-97 
f -107/-139/-97 -146/-181/-97 -138/-161/-97 
s 8
f -148/-135/-76 -144/-134/-76 -145/-133/-75 
f -145/-133/-75 -151/-132/-75 -148/-135/-76 
s 1
f -136/-162/-98 -149/-180/-98 -150/-181/-98 
f -150/-181/-98 -139/-161/-98 -136/-162/-98 
s 8
f -151/-132/-75 -145/-133/-75 -106/-131/-74 
f -106/-131/-74 -109/-130/-74 -151/-132/-75 
s 1
f -139/-161/-98 -150/-181/-98 -108/-139/-98 
f -108/-139/-98 -105/-136/-98 -139/-161/-98 
f -109/-140/-98 -117/-129/-98 -112/-144/-98 
f -112/-144/-98 -108/-139/-98 -109/-140/-98 
s 2
f -103/-144/-97 -116/-129/-97 -106/-140/-97 
f -106/-140/-97 -107/-139/-97 -103/-144/-97 
s 4
f -113/-128/-73 -102/-127/-73 -104/-137/-77 
f -104/-137/-77 -105/-138/-77 -113/-128/-73 
s 2
f -104/-136/-97 -102/-145/-97 -103/-144/-97 
f -103/-144/-97 -107/-139/-97 -104/-136/-97 
s 8
f -109/-130/-74 -106/-131/-74 -116/-148/-79 
f -116/-148/-79 -117/-149/-79 -109/-130/-74 
s 1
f -105/-136/-98 -108/-139/-98 -112/-144/-98 
f -112/-144/-98 -113/-145/-98 -105/-136/-98 
f -117/-129/-98 -114/-126/-98 -111/-143/-98 
f -111/-143/-98 -112/-144/-98 -117/-129/-98 
s 2
f -101/-143/-97 -115/-126/-97 -116/-129/-97 
f -116/-129/-97 -103/-144/-97 -101/-143/-97 
s 4
f -110/-125/-72 -100/-124/-72 -102/-127/-73 
f -102/-127/-73 -113/-128/-73 -110/-125/-72 
s 2
f -102/-145/-97 -100/-142/-97 -101/-143/-97 
f -101/-143/-97 -103/-144/-97 -102/-145/-97 
s 4
f -99/-123/-71 -98/-122/-71 -97/-121/-70 
f -97/-121/-70 -96/-120/-70 -99/-123/-71 
f -96/-120/-70 -97/-121/-70 -122/-119/-69 
f -122/-119/-69 -124/-118/-69 -96/-120/-70 
f -124/-118/-69 -122/-119/-69 -134/-169/-93 
f -134/-169/-93 -135/-170/-93 -124/-118/-69 
f -95/-117/-68 -94/-116/-67 -93/-115/-68 
f -95/-117/-68 -93/-115/-68 -132/-167/-92 
f -132/-167/-92 -133/-168/-92 -95/-117/-68 
s 1
f -92/-114/-66 -91/-113/-65 -90/-112/-64 
f -90/-112/-64 -89/-111/-63 -92/-114/-66 
f -92/-114/-66 -89/-111/-63 -125/-155/-87 
f -125/-155/-87 -118/-141/-86 -92/-114/-66 
f -118/-141/-86 -125/-155/-87 -130/-165/-90 
f -130/-165/-90 -131/-166/-91 -118/-141/-86 
f -88/-110/-62 -94/-109/-61 -87/-108/-60 
f -88/-110/-62 -87/-108/-60 -128/-163/-88 
f -128/-163/-88 -129/-164/-89 -88/-110/-62 
f -93/-107/-60 -94/-109/-61 -88/-110/-62 
f -93/-107/-60 -88/-110/-62 -129/-164/-89 
f -129/-164/-89 -132/-106/-88 -93/-107/-60 
f -132/-106/-88 -129/-164/-89 -130/-165/-90 
f -130/-165/-90 -135/-156/-91 -132/-106/-88 
f -90/-112/-64 -99/-105/-65 -96/-104/-66 
f -96/-104/-66 -89/-111/-63 -90/-112/-64 
f -89/-111/-63 -96/-104/-66 -124/-154/-86 
f -124/-154/-86 -125/-155/-87 -89/-111/-63 
s 2
f -86/-110/-59 -94/-109/-58 -95/-107/-57 
f -86/-110/-59 -95/-107/-57 -133/-106/-56 
f -133/-106/-56 -85/-164/-55 -86/-110/-59 
f -85/-164/-55 -133/-106/-56 -134/-156/-84 
f -134/-156/-84 -123/-165/-85 -85/-164/-55 
f -97/-104/-54 -98/-105/-82 -84/-112/-53 
f -84/-112/-53 -83/-111/-52 -97/-104/-54 
f -97/-104/-54 -83/-111/-52 -121/-155/-82 
f -121/-155/-82 -122/-154/-83 -97/-104/-54 
s 8
f -87/-103/-51 -94/-102/-50 -82/-101/-51 
f -87/-103/-51 -82/-101/-51 -81/-100/-49 
f -81/-100/-49 -128/-99/-49 -87/-103/-51 
f -128/-99/-49 -81/-100/-49 -120/-152/-81 
f -120/-152/-81 -131/-153/-81 -128/-99/-49 
f -80/-98/-48 -91/-97/-48 -92/-96/-47 
f -92/-96/-47 -79/-95/-47 -80/-98/-48 
f -79/-95/-47 -92/-96/-47 -118/-150/-80 
f -118/-150/-80 -119/-151/-80 -79/-95/-47 
s 2
f -82/-108/-57 -94/-109/-58 -86/-110/-59 
f -82/-108/-57 -86/-110/-59 -85/-164/-55 
f -85/-164/-55 -81/-163/-56 -82/-108/-57 
f -81/-163/-56 -85/-164/-55 -123/-165/-85 
f -123/-165/-85 -120/-166/-84 -81/-163/-56 
f -84/-112/-53 -80/-113/-82 -79/-114/-54 
f -79/-114/-54 -83/-111/-52 -84/-112/-53 
f -83/-111/-52 -79/-114/-54 -119/-141/-83 
f -119/-141/-83 -121/-155/-82 -83/-111/-52 
s 4
f -114/-146/-71 -115/-147/-71 -98/-122/-71 
f -98/-122/-71 -99/-123/-71 -114/-146/-71 
s 1
f -91/-113/-65 -110/-142/-98 -111/-143/-98 
f -111/-143/-98 -90/-112/-64 -91/-113/-65 
f -111/-143/-98 -114/-126/-98 -99/-105/-65 
f -99/-105/-65 -90/-112/-64 -111/-143/-98 
s 2
f -98/-105/-82 -115/-126/-97 -101/-143/-97 
f -101/-143/-97 -84/-112/-53 -98/-105/-82 
s 8
f -100/-124/-48 -110/-125/-48 -91/-97/-48 
f -91/-97/-48 -80/-98/-48 -100/-124/-48 
s 2
f -101/-143/-97 -100/-142/-97 -80/-113/-82 
f -80/-113/-82 -84/-112/-53 -101/-143/-97 
s 16
f -149/-94/-96 -136/-171/-96 -78/-93/-96 
f -78/-93/-96 -77/-92/-96 -149/-94/-96 
f -136/-171/-96 -137/-172/-96 -76/-91/-96 
f -76/-91/-96 -78/-93/-96 -136/-171/-96 
f -137/-172/-96 -147/-90/-96 -75/-89/-96 
f -75/-89/-96 -76/-91/-96 -137/-172/-96 
f -147/-90/-96 -144/-134/-96 -74/-88/-96 
f -74/-88/-96 -75/-89/-96 -147/-90/-96 
f -144/-134/-96 -148/-135/-96 -73/-87/-96 
f -73/-87/-96 -74/-88/-96 -144/-134/-96 
f -148/-135/-96 -149/-94/-96 -77/-92/-96 
f -77/-92/-96 -73/-87/-96 -148/-135/-96 
s 1
f -77/-86/-98 -78/-85/-98 -72/-84/-98 
f -72/-84/-98 -71/-83/-98 -77/-86/-98 
s 2
f -78/-85/-46 -76/-82/-46 -70/-81/-46 
f -70/-81/-46 -72/-84/-46 -78/-85/-46 
s 1
f -76/-82/-97 -75/-80/-97 -69/-79/-97 
f -69/-79/-97 -70/-81/-97 -76/-82/-97 
f -75/-80/-97 -74/-78/-97 -68/-77/-97 
f -68/-77/-97 -69/-79/-97 -75/-80/-97 
s 2
f -74/-78/-45 -73/-76/-45 -67/-75/-45 
f -67/-75/-45 -68/-77/-45 -74/-78/-45 
s 1
f -73/-74/-98 -77/-86/-98 -71/-83/-98 
f -71/-83/-98 -67/-73/-98 -73/-74/-98 
s 4
f -71/-72/-44 -72/-71/-44 -66/-70/-44 
f -66/-70/-44 -65/-69/-44 -71/-72/-44 
f -72/-71/-44 -70/-68/-44 -64/-67/-44 
f -64/-67/-44 -66/-70/-44 -72/-71/-44 
f -70/-68/-44 -69/-66/-44 -63/-65/-44 
f -63/-65/-44 -64/-67/-44 -70/-68/-44 
f -69/-66/-44 -68/-64/-44 -62/-63/-44 
f -62/-63/-44 -63/-65/-44 -69/-66/-44 
f -68/-64/-44 -67/-62/-44 -61/-61/-44 
f -61/-61/-44 -62/-63/-44 -68/-64/-44 
f -67/-62/-44 -71/-72/-44 -65/-69/-44 
f -65/-69/-44 -61/-61/-44 -67/-62/-44 
s 2
f -65/-69/-98 -66/-70/-98 -127/-160/-98 
f -127/-160/-98 -143/-157/-98 -65/-69/-98 
s 8
f -66/-70/-46 -64/-67/-46 -126/-159/-46 
f -126/-159/-46 -127/-160/-46 -66/-70/-46 
s 2
f -64/-67/-97 -63/-65/-97 -142/-158/-97 
f -142/-158/-97 -126/-159/-97 -64/-67/-97 
f -63/-65/-97 -62/-63/-97 -141/-176/-97 
f -141/-176/-97 -142/-177/-97 -63/-65/-97 
s 8
f -62/-63/-45 -61/-61/-45 -140/-175/-45 
f -140/-175/-45 -141/-176/-45 -62/-63/-45 
s 2
f -61/-61/-98 -65/-69/-98 -143/-178/-98 
f -143/-178/-98 -140/-175/-98 -61/-61/-98 
s 1
f -60/-60/-98 -59/-59/-98 -58/-58/-98 
f -57/-57/-97 -56/-56/-97 -55/-55/-97 
s 2
f -58/-54/-43 -56/-53/-43 -57/-52/-42 
f -57/-52/-42 -60/-51/-42 -58/-54/-43 
f -54/-50/-41 -53/-49/-40 -52/-48/-39 
f -52/-48/-39 -51/-47/-39 -54/-50/-41 
s 1
f -50/-46/-97 -49/-45/-97 -48/-44/-97 
f -47/-43/-97 -50/-46/-97 -48/-44/-97 
f -46/-42/-97 -47/-43/-97 -48/-44/-97 
s 4
f -45/-41/-38 -47/-40/-37 -46/-39/-36 
f -46/-39/-36 -44/-38/-35 -45/-41/-38 
f -43/-37/-34 -42/-36/-34 -41/-35/-33 
f -41/-35/-33 -40/-34/-33 -43/-37/-34 
s 1
f -39/-33/-98 -45/-32/-98 -44/-42/-98 
f -39/-33/-98 -44/-42/-98 -38/-44/-98 
f -37/-31/-98 -39/-33/-98 -38/-44/-98 
f -43/-46/-98 -36/-43/-98 -58/-58/-98 
f -58/-58/-98 -59/-59/-98 -43/-46/-98 
f -56/-56/-97 -35/-32/-97 -42/-33/-97 
f -42/-33/-97 -55/-55/-97 -56/-56/-97 
s 2
f -36/-30/-32 -35/-29/-32 -56/-53/-43 
f -56/-53/-43 -58/-54/-43 -36/-30/-32 
f -39/-28/-31 -50/-27/-30 -53/-49/-40 
f -53/-49/-40 -54/-50/-41 -39/-28/-31 
s 1
f -34/-58/-97 -52/-60/-97 -53/-59/-97 
s 4
f -51/-47/-29 -52/-48/-28 -34/-26/-27 
f -34/-26/-27 -33/-25/-26 -51/-47/-29 
f -60/-51/-25 -57/-52/-25 -55/-24/-24 
f -55/-24/-24 -59/-23/-24 -60/-51/-25 
s 1
f -54/-55/-98 -51/-57/-98 -33/-56/-98 
f -34/-58/-97 -53/-59/-97 -50/-46/-97 
f -50/-46/-97 -47/-43/-97 -34/-58/-97 
s 4
f -33/-25/-26 -34/-26/-27 -47/-40/-37 
f -47/-40/-37 -45/-41/-38 -33/-25/-26 
f -59/-23/-24 -55/-24/-24 -42/-36/-34 
f -42/-36/-34 -43/-37/-34 -59/-23/-24 
s 1
f -39/-33/-98 -54/-55/-98 -33/-56/-98 
f -33/-56/-98 -45/-32/-98 -39/-33/-98 
f -40/-45/-98 -38/-44/-98 -44/-42/-98 
f -40/-45/-98 -44/-42/-98 -36/-43/-98 
f -43/-46/-98 -40/-45/-98 -36/-43/-98 
f -46/-42/-97 -48/-44/-97 -41/-31/-97 
f -46/-42/-97 -41/-31/-97 -42/-33/-97 
f -35/-32/-97 -46/-42/-97 -42/-33/-97 
s 2
f -44/-38/-23 -46/-39/-23 -35/-29/-32 
f -35/-29/-32 -36/-30/-32 -44/-38/-23 
f -37/-22/-22 -49/-21/-21 -50/-27/-30 
f -50/-27/-30 -39/-28/-31 -37/-22/-22 
s 1
f -38/-44/-98 -40/-45/-98 -32/-20/-98 
s 4
f -40/-34/-33 -41/-35/-33 -31/-19/-20 
f -31/-19/-20 -32/-18/-19 -40/-34/-33 
s 1
f -41/-31/-97 -48/-44/-97 -31/-20/-97 
f -48/-44/-97 -49/-45/-97 -31/-20/-97 
s 2
f -49/-21/-21 -37/-22/-22 -32/-17/-18 
f -32/-17/-18 -31/-16/-17 -49/-21/-21 
s 1
f -37/-31/-98 -38/-44/-98 -32/-20/-98 
f -30/-15/-98 -29/-14/-98 -28/-13/-98 
f -27/-12/-97 -26/-11/-97 -25/-10/-97 
s 2
f -28/-54/-43 -26/-53/-43 -27/-52/-42 
f -27/-52/-42 -30/-51/-42 -28/-54/-43 
f -24/-50/-16 -23/-49/-15 -22/-48/-14 
f -22/-48/-14 -21/-47/-14 -24/-50/-16 
s 1
f -20/-9/-97 -19/-8/-97 -18/-7/-97 
f -17/-6/-97 -20/-9/-97 -18/-7/-97 
f -16/-5/-97 -17/-6/-97 -18/-7/-97 
s 4
f -15/-41/-13 -17/-40/-12 -16/-39/-36 
f -16/-39/-36 -14/-38/-35 -15/-41/-13 
f -13/-37/-34 -12/-36/-34 -11/-35/-33 
f -11/-35/-33 -10/-34/-33 -13/-37/-34 
s 1
f -9/-4/-98 -15/-3/-98 -14/-5/-98 
f -9/-4/-98 -14/-5/-98 -8/-7/-98 
f -7/-2/-98 -9/-4/-98 -8/-7/-98 
f -13/-9/-98 -6/-6/-98 -28/-13/-98 
f -28/-13/-98 -29/-14/-98 -13/-9/-98 
f -26/-11/-97 -5/-3/-97 -12/-4/-97 
f -12/-4/-97 -25/-10/-97 -26/-11/-97 
s 2
f -6/-30/-32 -5/-29/-32 -26/-53/-43 
f -26/-53/-43 -28/-54/-43 -6/-30/-32 
f -9/-28/-11 -20/-27/-10 -23/-49/-15 
f -23/-49/-15 -24/-50/-16 -9/-28/-11 
s 1
f -4/-13/-97 -22/-15/-97 -23/-14/-97 
s 4
f -21/-47/-9 -22/-48/-8 -4/-26/-7 
f -4/-26/-7 -3/-25/-6 -21/-47/-9 
f -30/-51/-25 -27/-52/-25 -25/-24/-24 
f -25/-24/-24 -29/-23/-24 -30/-51/-25 
s 1
f -24/-10/-98 -21/-12/-98 -3/-11/-98 
f -4/-13/-97 -23/-14/-97 -20/-9/-97 
f -20/-9/-97 -17/-6/-97 -4/-13/-97 
s 4
f -3/-25/-6 -4/-26/-7 -17/-40/-12 
f -17/-40/-12 -15/-41/-13 -3/-25/-6 
f -29/-23/-24 -25/-24/-24 -12/-36/-34 
f -12/-36/-34 -13/-37/-34 -29/-23/-24 
s 1
f -9/-4/-98 -24/-10/-98 -3/-11/-98 
f -3/-11/-98 -15/-3/-98 -9/-4/-98 
f -10/-8/-98 -8/-7/-98 -14/-5/-98 
f -10/-8/-98 -14/-5/-98 -6/-6/-98 
f -13/-9/-98 -10/-8/-98 -6/-6/-98 
f -16/-5/-97 -18/-7/-97 -11/-2/-97 
f -16/-5/-97 -11/-2/-97 -12/-4/-97 
f -5/-3/-97 -16/-5/-97 -12/-4/-97 
s 2
f -14/-38/-23 -16/-39/-23 -5/-29/-32 
f -5/-29/-32 -6/-30/-32 -14/-38/-23 
f -7/-22/-5 -19/-21/-4 -20/-27/-10 
f -20/-27/-10 -9/-28/-11 -7/-22/-5 
s 1
f -8/-7/-98 -10/-8/-98 -2/-1/-98 
s 4
f -10/-34/-33 -11/-35/-33 -1/-19/-3 
f -1/-19/-3 -2/-18/-3 -10/-34/-33 
s 1
f -11/-2/-97 -18/-7/-97 -1/-1/-97 
f -18/-7/-97 -19/-8/-97 -1/-1/-97 
s 2
f -19/-21/-4 -7/-22/-5 -2/-17/-2 
f -2/-17/-2 -1/-16/-1 -19/-21/-4 
s 1
f -7/-2/-98 -8/-7/-98 -2/-1/-98 
# 290 faces

